# xmcd
#
# Track frame offsets:
#	150
#	14218
#	29244
#	41127
#	54629
#	69741
#	84772
#	97775
#	112556
#	126317
#	138122
#	153736
#	168925
#	182173
#	194657
#	209408
#	222732
#
# Disc length: 3120 seconds
# Revision: 1
# Processed by: cddbd v1.5.2PL0 Copyright (c) Steve Scherf et al.
# Submitted via: dBpowerAMP V12.0
#
DISCID=fe0c2e11
DTITLE=Walter Davis - Don't You Want to Go?
DYEAR=1930
DGENRE=Blues
TTITLE0=M&O Blues
TTITLE1=That Stuff You Sell Ain't No Good
TTITLE2=Howling Wind Blues
TTITLE3=L&N Blues
TTITLE4=Minute Man Blues, Pt. 1
TTITLE5=Minute Man Blues, Pt. 2
TTITLE6=Sweet Sixteen
TTITLE7=Root Man Blues
TTITLE8=Moonlight Is My Spread
TTITLE9=Ashes in My Whiskey
TTITLE10=Think You Need a Shot
TTITLE11=Let Me in Your Saddle
TTITLE12=The Only Woman
TTITLE13=New Come Back Baby
TTITLE14=Don't You Want to Go?
TTITLE15=Tears Came Rollin' Down
TTITLE16=What Your Troubles May Be
EXTD=
EXTT0=
EXTT1=
EXTT2=
EXTT3=
EXTT4=
EXTT5=
EXTT6=
EXTT7=
EXTT8=
EXTT9=
EXTT10=
EXTT11=
EXTT12=
EXTT13=
EXTT14=
EXTT15=
EXTT16=
PLAYORDER=
